%TF.GenerationSoftware,KiCad,Pcbnew,10.0.3*%
%TF.CreationDate,2026-06-10T21:44:58+02:00*%
%TF.ProjectId,datum,64617475-6d2e-46b6-9963-61645f706362,rev?*%
%TF.SameCoordinates,Original*%
%TF.FileFunction,Legend,Bot*%
%TF.FilePolarity,Positive*%
%FSLAX46Y46*%
G04 Gerber Fmt 4.6, Leading zero omitted, Abs format (unit mm)*
G04 Created by KiCad (PCBNEW 10.0.3) date 2026-06-10 21:44:58*
%MOMM*%
%LPD*%
G01*
G04 APERTURE LIST*
%ADD10C,0.120000*%
%ADD11C,0.150000*%
%ADD12C,0.081250*%
%ADD13C,0.100000*%
%ADD14C,0.400000*%
%ADD15C,0.160000*%
%ADD16C,0.200000*%
G04 APERTURE END LIST*
D10*
X115836308Y-49344131D02*
X116036308Y-49058417D01*
X116179165Y-49344131D02*
X116179165Y-48744131D01*
X116179165Y-48744131D02*
X115950594Y-48744131D01*
X115950594Y-48744131D02*
X115893451Y-48772702D01*
X115893451Y-48772702D02*
X115864880Y-48801274D01*
X115864880Y-48801274D02*
X115836308Y-48858417D01*
X115836308Y-48858417D02*
X115836308Y-48944131D01*
X115836308Y-48944131D02*
X115864880Y-49001274D01*
X115864880Y-49001274D02*
X115893451Y-49029845D01*
X115893451Y-49029845D02*
X115950594Y-49058417D01*
X115950594Y-49058417D02*
X116179165Y-49058417D01*
X115607737Y-49172702D02*
X115322023Y-49172702D01*
X115664880Y-49344131D02*
X115464880Y-48744131D01*
X115464880Y-48744131D02*
X115264880Y-49344131D01*
X115122022Y-48744131D02*
X114979165Y-49344131D01*
X114979165Y-49344131D02*
X114864879Y-48915560D01*
X114864879Y-48915560D02*
X114750594Y-49344131D01*
X114750594Y-49344131D02*
X114607737Y-48744131D01*
X115864880Y-51312702D02*
X115922023Y-51284131D01*
X115922023Y-51284131D02*
X116007737Y-51284131D01*
X116007737Y-51284131D02*
X116093451Y-51312702D01*
X116093451Y-51312702D02*
X116150594Y-51369845D01*
X116150594Y-51369845D02*
X116179165Y-51426988D01*
X116179165Y-51426988D02*
X116207737Y-51541274D01*
X116207737Y-51541274D02*
X116207737Y-51626988D01*
X116207737Y-51626988D02*
X116179165Y-51741274D01*
X116179165Y-51741274D02*
X116150594Y-51798417D01*
X116150594Y-51798417D02*
X116093451Y-51855560D01*
X116093451Y-51855560D02*
X116007737Y-51884131D01*
X116007737Y-51884131D02*
X115950594Y-51884131D01*
X115950594Y-51884131D02*
X115864880Y-51855560D01*
X115864880Y-51855560D02*
X115836308Y-51826988D01*
X115836308Y-51826988D02*
X115836308Y-51626988D01*
X115836308Y-51626988D02*
X115950594Y-51626988D01*
X115579165Y-51884131D02*
X115579165Y-51284131D01*
X115579165Y-51284131D02*
X115236308Y-51884131D01*
X115236308Y-51884131D02*
X115236308Y-51284131D01*
X114950594Y-51884131D02*
X114950594Y-51284131D01*
X114950594Y-51284131D02*
X114807737Y-51284131D01*
X114807737Y-51284131D02*
X114722023Y-51312702D01*
X114722023Y-51312702D02*
X114664880Y-51369845D01*
X114664880Y-51369845D02*
X114636309Y-51426988D01*
X114636309Y-51426988D02*
X114607737Y-51541274D01*
X114607737Y-51541274D02*
X114607737Y-51626988D01*
X114607737Y-51626988D02*
X114636309Y-51741274D01*
X114636309Y-51741274D02*
X114664880Y-51798417D01*
X114664880Y-51798417D02*
X114722023Y-51855560D01*
X114722023Y-51855560D02*
X114807737Y-51884131D01*
X114807737Y-51884131D02*
X114950594Y-51884131D01*
D11*
X113358570Y-45929485D02*
X113272856Y-45958057D01*
X113272856Y-45958057D02*
X113244285Y-45986628D01*
X113244285Y-45986628D02*
X113215713Y-46043771D01*
X113215713Y-46043771D02*
X113215713Y-46129485D01*
X113215713Y-46129485D02*
X113244285Y-46186628D01*
X113244285Y-46186628D02*
X113272856Y-46215200D01*
X113272856Y-46215200D02*
X113329999Y-46243771D01*
X113329999Y-46243771D02*
X113558570Y-46243771D01*
X113558570Y-46243771D02*
X113558570Y-45643771D01*
X113558570Y-45643771D02*
X113358570Y-45643771D01*
X113358570Y-45643771D02*
X113301428Y-45672342D01*
X113301428Y-45672342D02*
X113272856Y-45700914D01*
X113272856Y-45700914D02*
X113244285Y-45758057D01*
X113244285Y-45758057D02*
X113244285Y-45815200D01*
X113244285Y-45815200D02*
X113272856Y-45872342D01*
X113272856Y-45872342D02*
X113301428Y-45900914D01*
X113301428Y-45900914D02*
X113358570Y-45929485D01*
X113358570Y-45929485D02*
X113558570Y-45929485D01*
X112958570Y-46015200D02*
X112501428Y-46015200D01*
X124915570Y-45929485D02*
X124829856Y-45958057D01*
X124829856Y-45958057D02*
X124801285Y-45986628D01*
X124801285Y-45986628D02*
X124772713Y-46043771D01*
X124772713Y-46043771D02*
X124772713Y-46129485D01*
X124772713Y-46129485D02*
X124801285Y-46186628D01*
X124801285Y-46186628D02*
X124829856Y-46215200D01*
X124829856Y-46215200D02*
X124886999Y-46243771D01*
X124886999Y-46243771D02*
X125115570Y-46243771D01*
X125115570Y-46243771D02*
X125115570Y-45643771D01*
X125115570Y-45643771D02*
X124915570Y-45643771D01*
X124915570Y-45643771D02*
X124858428Y-45672342D01*
X124858428Y-45672342D02*
X124829856Y-45700914D01*
X124829856Y-45700914D02*
X124801285Y-45758057D01*
X124801285Y-45758057D02*
X124801285Y-45815200D01*
X124801285Y-45815200D02*
X124829856Y-45872342D01*
X124829856Y-45872342D02*
X124858428Y-45900914D01*
X124858428Y-45900914D02*
X124915570Y-45929485D01*
X124915570Y-45929485D02*
X125115570Y-45929485D01*
X124515570Y-46015200D02*
X124058428Y-46015200D01*
X124286999Y-46243771D02*
X124286999Y-45786628D01*
D12*
X64620356Y-83054322D02*
X64651308Y-83085275D01*
X64651308Y-83085275D02*
X64744166Y-83116227D01*
X64744166Y-83116227D02*
X64806070Y-83116227D01*
X64806070Y-83116227D02*
X64898927Y-83085275D01*
X64898927Y-83085275D02*
X64960832Y-83023370D01*
X64960832Y-83023370D02*
X64991785Y-82961465D01*
X64991785Y-82961465D02*
X65022737Y-82837655D01*
X65022737Y-82837655D02*
X65022737Y-82744798D01*
X65022737Y-82744798D02*
X64991785Y-82620989D01*
X64991785Y-82620989D02*
X64960832Y-82559084D01*
X64960832Y-82559084D02*
X64898927Y-82497179D01*
X64898927Y-82497179D02*
X64806070Y-82466227D01*
X64806070Y-82466227D02*
X64744166Y-82466227D01*
X64744166Y-82466227D02*
X64651308Y-82497179D01*
X64651308Y-82497179D02*
X64620356Y-82528132D01*
X64341785Y-83116227D02*
X64341785Y-82466227D01*
X64063213Y-83116227D02*
X64063213Y-82775751D01*
X64063213Y-82775751D02*
X64094166Y-82713846D01*
X64094166Y-82713846D02*
X64156070Y-82682894D01*
X64156070Y-82682894D02*
X64248927Y-82682894D01*
X64248927Y-82682894D02*
X64310832Y-82713846D01*
X64310832Y-82713846D02*
X64341785Y-82744798D01*
X63753690Y-83116227D02*
X63753690Y-82682894D01*
X63753690Y-82806703D02*
X63722737Y-82744798D01*
X63722737Y-82744798D02*
X63691785Y-82713846D01*
X63691785Y-82713846D02*
X63629880Y-82682894D01*
X63629880Y-82682894D02*
X63567975Y-82682894D01*
X63351309Y-83116227D02*
X63351309Y-82682894D01*
X63351309Y-82466227D02*
X63382261Y-82497179D01*
X63382261Y-82497179D02*
X63351309Y-82528132D01*
X63351309Y-82528132D02*
X63320356Y-82497179D01*
X63320356Y-82497179D02*
X63351309Y-82466227D01*
X63351309Y-82466227D02*
X63351309Y-82528132D01*
X63072737Y-83085275D02*
X63010832Y-83116227D01*
X63010832Y-83116227D02*
X62887023Y-83116227D01*
X62887023Y-83116227D02*
X62825118Y-83085275D01*
X62825118Y-83085275D02*
X62794166Y-83023370D01*
X62794166Y-83023370D02*
X62794166Y-82992417D01*
X62794166Y-82992417D02*
X62825118Y-82930513D01*
X62825118Y-82930513D02*
X62887023Y-82899560D01*
X62887023Y-82899560D02*
X62979880Y-82899560D01*
X62979880Y-82899560D02*
X63041785Y-82868608D01*
X63041785Y-82868608D02*
X63072737Y-82806703D01*
X63072737Y-82806703D02*
X63072737Y-82775751D01*
X63072737Y-82775751D02*
X63041785Y-82713846D01*
X63041785Y-82713846D02*
X62979880Y-82682894D01*
X62979880Y-82682894D02*
X62887023Y-82682894D01*
X62887023Y-82682894D02*
X62825118Y-82713846D01*
X62608452Y-82682894D02*
X62360833Y-82682894D01*
X62515595Y-82466227D02*
X62515595Y-83023370D01*
X62515595Y-83023370D02*
X62484642Y-83085275D01*
X62484642Y-83085275D02*
X62422737Y-83116227D01*
X62422737Y-83116227D02*
X62360833Y-83116227D01*
X62144166Y-83116227D02*
X62144166Y-82682894D01*
X62144166Y-82466227D02*
X62175118Y-82497179D01*
X62175118Y-82497179D02*
X62144166Y-82528132D01*
X62144166Y-82528132D02*
X62113213Y-82497179D01*
X62113213Y-82497179D02*
X62144166Y-82466227D01*
X62144166Y-82466227D02*
X62144166Y-82528132D01*
X61556070Y-83116227D02*
X61556070Y-82775751D01*
X61556070Y-82775751D02*
X61587023Y-82713846D01*
X61587023Y-82713846D02*
X61648927Y-82682894D01*
X61648927Y-82682894D02*
X61772737Y-82682894D01*
X61772737Y-82682894D02*
X61834642Y-82713846D01*
X61556070Y-83085275D02*
X61617975Y-83116227D01*
X61617975Y-83116227D02*
X61772737Y-83116227D01*
X61772737Y-83116227D02*
X61834642Y-83085275D01*
X61834642Y-83085275D02*
X61865594Y-83023370D01*
X61865594Y-83023370D02*
X61865594Y-82961465D01*
X61865594Y-82961465D02*
X61834642Y-82899560D01*
X61834642Y-82899560D02*
X61772737Y-82868608D01*
X61772737Y-82868608D02*
X61617975Y-82868608D01*
X61617975Y-82868608D02*
X61556070Y-82837655D01*
X61246547Y-82682894D02*
X61246547Y-83116227D01*
X61246547Y-82744798D02*
X61215594Y-82713846D01*
X61215594Y-82713846D02*
X61153689Y-82682894D01*
X61153689Y-82682894D02*
X61060832Y-82682894D01*
X61060832Y-82682894D02*
X60998928Y-82713846D01*
X60998928Y-82713846D02*
X60967975Y-82775751D01*
X60967975Y-82775751D02*
X60967975Y-83116227D01*
X59946547Y-82775751D02*
X60163214Y-82775751D01*
X60163214Y-83116227D02*
X60163214Y-82466227D01*
X60163214Y-82466227D02*
X59853690Y-82466227D01*
X59327499Y-83116227D02*
X59327499Y-82775751D01*
X59327499Y-82775751D02*
X59358452Y-82713846D01*
X59358452Y-82713846D02*
X59420356Y-82682894D01*
X59420356Y-82682894D02*
X59544166Y-82682894D01*
X59544166Y-82682894D02*
X59606071Y-82713846D01*
X59327499Y-83085275D02*
X59389404Y-83116227D01*
X59389404Y-83116227D02*
X59544166Y-83116227D01*
X59544166Y-83116227D02*
X59606071Y-83085275D01*
X59606071Y-83085275D02*
X59637023Y-83023370D01*
X59637023Y-83023370D02*
X59637023Y-82961465D01*
X59637023Y-82961465D02*
X59606071Y-82899560D01*
X59606071Y-82899560D02*
X59544166Y-82868608D01*
X59544166Y-82868608D02*
X59389404Y-82868608D01*
X59389404Y-82868608D02*
X59327499Y-82837655D01*
X58739404Y-82682894D02*
X58739404Y-83116227D01*
X59017976Y-82682894D02*
X59017976Y-83023370D01*
X59017976Y-83023370D02*
X58987023Y-83085275D01*
X58987023Y-83085275D02*
X58925118Y-83116227D01*
X58925118Y-83116227D02*
X58832261Y-83116227D01*
X58832261Y-83116227D02*
X58770357Y-83085275D01*
X58770357Y-83085275D02*
X58739404Y-83054322D01*
X58429881Y-83116227D02*
X58429881Y-82682894D01*
X58429881Y-82806703D02*
X58398928Y-82744798D01*
X58398928Y-82744798D02*
X58367976Y-82713846D01*
X58367976Y-82713846D02*
X58306071Y-82682894D01*
X58306071Y-82682894D02*
X58244166Y-82682894D01*
X58027500Y-83116227D02*
X58027500Y-82466227D01*
X57748928Y-83116227D02*
X57748928Y-82775751D01*
X57748928Y-82775751D02*
X57779881Y-82713846D01*
X57779881Y-82713846D02*
X57841785Y-82682894D01*
X57841785Y-82682894D02*
X57934642Y-82682894D01*
X57934642Y-82682894D02*
X57996547Y-82713846D01*
X57996547Y-82713846D02*
X58027500Y-82744798D01*
X57346547Y-83116227D02*
X57408452Y-83085275D01*
X57408452Y-83085275D02*
X57439405Y-83054322D01*
X57439405Y-83054322D02*
X57470357Y-82992417D01*
X57470357Y-82992417D02*
X57470357Y-82806703D01*
X57470357Y-82806703D02*
X57439405Y-82744798D01*
X57439405Y-82744798D02*
X57408452Y-82713846D01*
X57408452Y-82713846D02*
X57346547Y-82682894D01*
X57346547Y-82682894D02*
X57253690Y-82682894D01*
X57253690Y-82682894D02*
X57191786Y-82713846D01*
X57191786Y-82713846D02*
X57160833Y-82744798D01*
X57160833Y-82744798D02*
X57129881Y-82806703D01*
X57129881Y-82806703D02*
X57129881Y-82992417D01*
X57129881Y-82992417D02*
X57160833Y-83054322D01*
X57160833Y-83054322D02*
X57191786Y-83085275D01*
X57191786Y-83085275D02*
X57253690Y-83116227D01*
X57253690Y-83116227D02*
X57346547Y-83116227D01*
X56758452Y-83116227D02*
X56820357Y-83085275D01*
X56820357Y-83085275D02*
X56851310Y-83023370D01*
X56851310Y-83023370D02*
X56851310Y-82466227D01*
X56603691Y-82682894D02*
X56356072Y-82682894D01*
X56510834Y-82466227D02*
X56510834Y-83023370D01*
X56510834Y-83023370D02*
X56479881Y-83085275D01*
X56479881Y-83085275D02*
X56417976Y-83116227D01*
X56417976Y-83116227D02*
X56356072Y-83116227D01*
D13*
X64943734Y-82096895D02*
X64943734Y-81563561D01*
X64943734Y-81639752D02*
X64905639Y-81601657D01*
X64905639Y-81601657D02*
X64829449Y-81563561D01*
X64829449Y-81563561D02*
X64715163Y-81563561D01*
X64715163Y-81563561D02*
X64638972Y-81601657D01*
X64638972Y-81601657D02*
X64600877Y-81677847D01*
X64600877Y-81677847D02*
X64600877Y-82096895D01*
X64600877Y-81677847D02*
X64562782Y-81601657D01*
X64562782Y-81601657D02*
X64486591Y-81563561D01*
X64486591Y-81563561D02*
X64372306Y-81563561D01*
X64372306Y-81563561D02*
X64296115Y-81601657D01*
X64296115Y-81601657D02*
X64258020Y-81677847D01*
X64258020Y-81677847D02*
X64258020Y-82096895D01*
X63534210Y-82096895D02*
X63534210Y-81677847D01*
X63534210Y-81677847D02*
X63572305Y-81601657D01*
X63572305Y-81601657D02*
X63648496Y-81563561D01*
X63648496Y-81563561D02*
X63800877Y-81563561D01*
X63800877Y-81563561D02*
X63877067Y-81601657D01*
X63534210Y-82058800D02*
X63610401Y-82096895D01*
X63610401Y-82096895D02*
X63800877Y-82096895D01*
X63800877Y-82096895D02*
X63877067Y-82058800D01*
X63877067Y-82058800D02*
X63915163Y-81982609D01*
X63915163Y-81982609D02*
X63915163Y-81906419D01*
X63915163Y-81906419D02*
X63877067Y-81830228D01*
X63877067Y-81830228D02*
X63800877Y-81792133D01*
X63800877Y-81792133D02*
X63610401Y-81792133D01*
X63610401Y-81792133D02*
X63534210Y-81754038D01*
X62810400Y-82096895D02*
X62810400Y-81296895D01*
X62810400Y-82058800D02*
X62886591Y-82096895D01*
X62886591Y-82096895D02*
X63038972Y-82096895D01*
X63038972Y-82096895D02*
X63115162Y-82058800D01*
X63115162Y-82058800D02*
X63153257Y-82020704D01*
X63153257Y-82020704D02*
X63191353Y-81944514D01*
X63191353Y-81944514D02*
X63191353Y-81715942D01*
X63191353Y-81715942D02*
X63153257Y-81639752D01*
X63153257Y-81639752D02*
X63115162Y-81601657D01*
X63115162Y-81601657D02*
X63038972Y-81563561D01*
X63038972Y-81563561D02*
X62886591Y-81563561D01*
X62886591Y-81563561D02*
X62810400Y-81601657D01*
X62124685Y-82058800D02*
X62200876Y-82096895D01*
X62200876Y-82096895D02*
X62353257Y-82096895D01*
X62353257Y-82096895D02*
X62429447Y-82058800D01*
X62429447Y-82058800D02*
X62467543Y-81982609D01*
X62467543Y-81982609D02*
X62467543Y-81677847D01*
X62467543Y-81677847D02*
X62429447Y-81601657D01*
X62429447Y-81601657D02*
X62353257Y-81563561D01*
X62353257Y-81563561D02*
X62200876Y-81563561D01*
X62200876Y-81563561D02*
X62124685Y-81601657D01*
X62124685Y-81601657D02*
X62086590Y-81677847D01*
X62086590Y-81677847D02*
X62086590Y-81754038D01*
X62086590Y-81754038D02*
X62467543Y-81830228D01*
X61134209Y-82096895D02*
X61134209Y-81296895D01*
X61134209Y-81601657D02*
X61058019Y-81563561D01*
X61058019Y-81563561D02*
X60905638Y-81563561D01*
X60905638Y-81563561D02*
X60829447Y-81601657D01*
X60829447Y-81601657D02*
X60791352Y-81639752D01*
X60791352Y-81639752D02*
X60753257Y-81715942D01*
X60753257Y-81715942D02*
X60753257Y-81944514D01*
X60753257Y-81944514D02*
X60791352Y-82020704D01*
X60791352Y-82020704D02*
X60829447Y-82058800D01*
X60829447Y-82058800D02*
X60905638Y-82096895D01*
X60905638Y-82096895D02*
X61058019Y-82096895D01*
X61058019Y-82096895D02*
X61134209Y-82058800D01*
X60486590Y-81563561D02*
X60296114Y-82096895D01*
X60105637Y-81563561D02*
X60296114Y-82096895D01*
X60296114Y-82096895D02*
X60372304Y-82287371D01*
X60372304Y-82287371D02*
X60410399Y-82325466D01*
X60410399Y-82325466D02*
X60486590Y-82363561D01*
D14*
X63903509Y-80934438D02*
X63903509Y-78934438D01*
X63903509Y-80839200D02*
X64093985Y-80934438D01*
X64093985Y-80934438D02*
X64474938Y-80934438D01*
X64474938Y-80934438D02*
X64665414Y-80839200D01*
X64665414Y-80839200D02*
X64760652Y-80743961D01*
X64760652Y-80743961D02*
X64855890Y-80553485D01*
X64855890Y-80553485D02*
X64855890Y-79982057D01*
X64855890Y-79982057D02*
X64760652Y-79791580D01*
X64760652Y-79791580D02*
X64665414Y-79696342D01*
X64665414Y-79696342D02*
X64474938Y-79601104D01*
X64474938Y-79601104D02*
X64093985Y-79601104D01*
X64093985Y-79601104D02*
X63903509Y-79696342D01*
X62093985Y-80934438D02*
X62093985Y-79886819D01*
X62093985Y-79886819D02*
X62189223Y-79696342D01*
X62189223Y-79696342D02*
X62379699Y-79601104D01*
X62379699Y-79601104D02*
X62760652Y-79601104D01*
X62760652Y-79601104D02*
X62951128Y-79696342D01*
X62093985Y-80839200D02*
X62284461Y-80934438D01*
X62284461Y-80934438D02*
X62760652Y-80934438D01*
X62760652Y-80934438D02*
X62951128Y-80839200D01*
X62951128Y-80839200D02*
X63046366Y-80648723D01*
X63046366Y-80648723D02*
X63046366Y-80458247D01*
X63046366Y-80458247D02*
X62951128Y-80267771D01*
X62951128Y-80267771D02*
X62760652Y-80172533D01*
X62760652Y-80172533D02*
X62284461Y-80172533D01*
X62284461Y-80172533D02*
X62093985Y-80077295D01*
X61427318Y-79601104D02*
X60665414Y-79601104D01*
X61141604Y-78934438D02*
X61141604Y-80648723D01*
X61141604Y-80648723D02*
X61046366Y-80839200D01*
X61046366Y-80839200D02*
X60855890Y-80934438D01*
X60855890Y-80934438D02*
X60665414Y-80934438D01*
X59141604Y-79601104D02*
X59141604Y-80934438D01*
X59998747Y-79601104D02*
X59998747Y-80648723D01*
X59998747Y-80648723D02*
X59903509Y-80839200D01*
X59903509Y-80839200D02*
X59713033Y-80934438D01*
X59713033Y-80934438D02*
X59427318Y-80934438D01*
X59427318Y-80934438D02*
X59236842Y-80839200D01*
X59236842Y-80839200D02*
X59141604Y-80743961D01*
X58189223Y-80934438D02*
X58189223Y-79601104D01*
X58189223Y-79791580D02*
X58093985Y-79696342D01*
X58093985Y-79696342D02*
X57903509Y-79601104D01*
X57903509Y-79601104D02*
X57617794Y-79601104D01*
X57617794Y-79601104D02*
X57427318Y-79696342D01*
X57427318Y-79696342D02*
X57332080Y-79886819D01*
X57332080Y-79886819D02*
X57332080Y-80934438D01*
X57332080Y-79886819D02*
X57236842Y-79696342D01*
X57236842Y-79696342D02*
X57046366Y-79601104D01*
X57046366Y-79601104D02*
X56760652Y-79601104D01*
X56760652Y-79601104D02*
X56570175Y-79696342D01*
X56570175Y-79696342D02*
X56474937Y-79886819D01*
X56474937Y-79886819D02*
X56474937Y-80934438D01*
D15*
X33102508Y-40806380D02*
X32973937Y-40849237D01*
X32973937Y-40849237D02*
X32759651Y-40849237D01*
X32759651Y-40849237D02*
X32673937Y-40806380D01*
X32673937Y-40806380D02*
X32631079Y-40763522D01*
X32631079Y-40763522D02*
X32588222Y-40677808D01*
X32588222Y-40677808D02*
X32588222Y-40592094D01*
X32588222Y-40592094D02*
X32631079Y-40506380D01*
X32631079Y-40506380D02*
X32673937Y-40463522D01*
X32673937Y-40463522D02*
X32759651Y-40420665D01*
X32759651Y-40420665D02*
X32931079Y-40377808D01*
X32931079Y-40377808D02*
X33016794Y-40334951D01*
X33016794Y-40334951D02*
X33059651Y-40292094D01*
X33059651Y-40292094D02*
X33102508Y-40206380D01*
X33102508Y-40206380D02*
X33102508Y-40120665D01*
X33102508Y-40120665D02*
X33059651Y-40034951D01*
X33059651Y-40034951D02*
X33016794Y-39992094D01*
X33016794Y-39992094D02*
X32931079Y-39949237D01*
X32931079Y-39949237D02*
X32716794Y-39949237D01*
X32716794Y-39949237D02*
X32588222Y-39992094D01*
X32288222Y-39949237D02*
X32073936Y-40849237D01*
X32073936Y-40849237D02*
X31902508Y-40206380D01*
X31902508Y-40206380D02*
X31731079Y-40849237D01*
X31731079Y-40849237D02*
X31516794Y-39949237D01*
X30702508Y-40849237D02*
X31216794Y-40849237D01*
X30959651Y-40849237D02*
X30959651Y-39949237D01*
X30959651Y-39949237D02*
X31045365Y-40077808D01*
X31045365Y-40077808D02*
X31131080Y-40163522D01*
X31131080Y-40163522D02*
X31216794Y-40206380D01*
X51102508Y-28806380D02*
X50973937Y-28849237D01*
X50973937Y-28849237D02*
X50759651Y-28849237D01*
X50759651Y-28849237D02*
X50673937Y-28806380D01*
X50673937Y-28806380D02*
X50631079Y-28763522D01*
X50631079Y-28763522D02*
X50588222Y-28677808D01*
X50588222Y-28677808D02*
X50588222Y-28592094D01*
X50588222Y-28592094D02*
X50631079Y-28506380D01*
X50631079Y-28506380D02*
X50673937Y-28463522D01*
X50673937Y-28463522D02*
X50759651Y-28420665D01*
X50759651Y-28420665D02*
X50931079Y-28377808D01*
X50931079Y-28377808D02*
X51016794Y-28334951D01*
X51016794Y-28334951D02*
X51059651Y-28292094D01*
X51059651Y-28292094D02*
X51102508Y-28206380D01*
X51102508Y-28206380D02*
X51102508Y-28120665D01*
X51102508Y-28120665D02*
X51059651Y-28034951D01*
X51059651Y-28034951D02*
X51016794Y-27992094D01*
X51016794Y-27992094D02*
X50931079Y-27949237D01*
X50931079Y-27949237D02*
X50716794Y-27949237D01*
X50716794Y-27949237D02*
X50588222Y-27992094D01*
X50288222Y-27949237D02*
X50073936Y-28849237D01*
X50073936Y-28849237D02*
X49902508Y-28206380D01*
X49902508Y-28206380D02*
X49731079Y-28849237D01*
X49731079Y-28849237D02*
X49516794Y-27949237D01*
X49216794Y-28034951D02*
X49173937Y-27992094D01*
X49173937Y-27992094D02*
X49088223Y-27949237D01*
X49088223Y-27949237D02*
X48873937Y-27949237D01*
X48873937Y-27949237D02*
X48788223Y-27992094D01*
X48788223Y-27992094D02*
X48745365Y-28034951D01*
X48745365Y-28034951D02*
X48702508Y-28120665D01*
X48702508Y-28120665D02*
X48702508Y-28206380D01*
X48702508Y-28206380D02*
X48745365Y-28334951D01*
X48745365Y-28334951D02*
X49259651Y-28849237D01*
X49259651Y-28849237D02*
X48702508Y-28849237D01*
X69102508Y-21806380D02*
X68973937Y-21849237D01*
X68973937Y-21849237D02*
X68759651Y-21849237D01*
X68759651Y-21849237D02*
X68673937Y-21806380D01*
X68673937Y-21806380D02*
X68631079Y-21763522D01*
X68631079Y-21763522D02*
X68588222Y-21677808D01*
X68588222Y-21677808D02*
X68588222Y-21592094D01*
X68588222Y-21592094D02*
X68631079Y-21506380D01*
X68631079Y-21506380D02*
X68673937Y-21463522D01*
X68673937Y-21463522D02*
X68759651Y-21420665D01*
X68759651Y-21420665D02*
X68931079Y-21377808D01*
X68931079Y-21377808D02*
X69016794Y-21334951D01*
X69016794Y-21334951D02*
X69059651Y-21292094D01*
X69059651Y-21292094D02*
X69102508Y-21206380D01*
X69102508Y-21206380D02*
X69102508Y-21120665D01*
X69102508Y-21120665D02*
X69059651Y-21034951D01*
X69059651Y-21034951D02*
X69016794Y-20992094D01*
X69016794Y-20992094D02*
X68931079Y-20949237D01*
X68931079Y-20949237D02*
X68716794Y-20949237D01*
X68716794Y-20949237D02*
X68588222Y-20992094D01*
X68288222Y-20949237D02*
X68073936Y-21849237D01*
X68073936Y-21849237D02*
X67902508Y-21206380D01*
X67902508Y-21206380D02*
X67731079Y-21849237D01*
X67731079Y-21849237D02*
X67516794Y-20949237D01*
X67259651Y-20949237D02*
X66702508Y-20949237D01*
X66702508Y-20949237D02*
X67002508Y-21292094D01*
X67002508Y-21292094D02*
X66873937Y-21292094D01*
X66873937Y-21292094D02*
X66788223Y-21334951D01*
X66788223Y-21334951D02*
X66745365Y-21377808D01*
X66745365Y-21377808D02*
X66702508Y-21463522D01*
X66702508Y-21463522D02*
X66702508Y-21677808D01*
X66702508Y-21677808D02*
X66745365Y-21763522D01*
X66745365Y-21763522D02*
X66788223Y-21806380D01*
X66788223Y-21806380D02*
X66873937Y-21849237D01*
X66873937Y-21849237D02*
X67131080Y-21849237D01*
X67131080Y-21849237D02*
X67216794Y-21806380D01*
X67216794Y-21806380D02*
X67259651Y-21763522D01*
X87102508Y-27306380D02*
X86973937Y-27349237D01*
X86973937Y-27349237D02*
X86759651Y-27349237D01*
X86759651Y-27349237D02*
X86673937Y-27306380D01*
X86673937Y-27306380D02*
X86631079Y-27263522D01*
X86631079Y-27263522D02*
X86588222Y-27177808D01*
X86588222Y-27177808D02*
X86588222Y-27092094D01*
X86588222Y-27092094D02*
X86631079Y-27006380D01*
X86631079Y-27006380D02*
X86673937Y-26963522D01*
X86673937Y-26963522D02*
X86759651Y-26920665D01*
X86759651Y-26920665D02*
X86931079Y-26877808D01*
X86931079Y-26877808D02*
X87016794Y-26834951D01*
X87016794Y-26834951D02*
X87059651Y-26792094D01*
X87059651Y-26792094D02*
X87102508Y-26706380D01*
X87102508Y-26706380D02*
X87102508Y-26620665D01*
X87102508Y-26620665D02*
X87059651Y-26534951D01*
X87059651Y-26534951D02*
X87016794Y-26492094D01*
X87016794Y-26492094D02*
X86931079Y-26449237D01*
X86931079Y-26449237D02*
X86716794Y-26449237D01*
X86716794Y-26449237D02*
X86588222Y-26492094D01*
X86288222Y-26449237D02*
X86073936Y-27349237D01*
X86073936Y-27349237D02*
X85902508Y-26706380D01*
X85902508Y-26706380D02*
X85731079Y-27349237D01*
X85731079Y-27349237D02*
X85516794Y-26449237D01*
X84788223Y-26749237D02*
X84788223Y-27349237D01*
X85002508Y-26406380D02*
X85216794Y-27049237D01*
X85216794Y-27049237D02*
X84659651Y-27049237D01*
X105102508Y-29806380D02*
X104973937Y-29849237D01*
X104973937Y-29849237D02*
X104759651Y-29849237D01*
X104759651Y-29849237D02*
X104673937Y-29806380D01*
X104673937Y-29806380D02*
X104631079Y-29763522D01*
X104631079Y-29763522D02*
X104588222Y-29677808D01*
X104588222Y-29677808D02*
X104588222Y-29592094D01*
X104588222Y-29592094D02*
X104631079Y-29506380D01*
X104631079Y-29506380D02*
X104673937Y-29463522D01*
X104673937Y-29463522D02*
X104759651Y-29420665D01*
X104759651Y-29420665D02*
X104931079Y-29377808D01*
X104931079Y-29377808D02*
X105016794Y-29334951D01*
X105016794Y-29334951D02*
X105059651Y-29292094D01*
X105059651Y-29292094D02*
X105102508Y-29206380D01*
X105102508Y-29206380D02*
X105102508Y-29120665D01*
X105102508Y-29120665D02*
X105059651Y-29034951D01*
X105059651Y-29034951D02*
X105016794Y-28992094D01*
X105016794Y-28992094D02*
X104931079Y-28949237D01*
X104931079Y-28949237D02*
X104716794Y-28949237D01*
X104716794Y-28949237D02*
X104588222Y-28992094D01*
X104288222Y-28949237D02*
X104073936Y-29849237D01*
X104073936Y-29849237D02*
X103902508Y-29206380D01*
X103902508Y-29206380D02*
X103731079Y-29849237D01*
X103731079Y-29849237D02*
X103516794Y-28949237D01*
X102745365Y-28949237D02*
X103173937Y-28949237D01*
X103173937Y-28949237D02*
X103216794Y-29377808D01*
X103216794Y-29377808D02*
X103173937Y-29334951D01*
X103173937Y-29334951D02*
X103088223Y-29292094D01*
X103088223Y-29292094D02*
X102873937Y-29292094D01*
X102873937Y-29292094D02*
X102788223Y-29334951D01*
X102788223Y-29334951D02*
X102745365Y-29377808D01*
X102745365Y-29377808D02*
X102702508Y-29463522D01*
X102702508Y-29463522D02*
X102702508Y-29677808D01*
X102702508Y-29677808D02*
X102745365Y-29763522D01*
X102745365Y-29763522D02*
X102788223Y-29806380D01*
X102788223Y-29806380D02*
X102873937Y-29849237D01*
X102873937Y-29849237D02*
X103088223Y-29849237D01*
X103088223Y-29849237D02*
X103173937Y-29806380D01*
X103173937Y-29806380D02*
X103216794Y-29763522D01*
X33102508Y-57806380D02*
X32973937Y-57849237D01*
X32973937Y-57849237D02*
X32759651Y-57849237D01*
X32759651Y-57849237D02*
X32673937Y-57806380D01*
X32673937Y-57806380D02*
X32631079Y-57763522D01*
X32631079Y-57763522D02*
X32588222Y-57677808D01*
X32588222Y-57677808D02*
X32588222Y-57592094D01*
X32588222Y-57592094D02*
X32631079Y-57506380D01*
X32631079Y-57506380D02*
X32673937Y-57463522D01*
X32673937Y-57463522D02*
X32759651Y-57420665D01*
X32759651Y-57420665D02*
X32931079Y-57377808D01*
X32931079Y-57377808D02*
X33016794Y-57334951D01*
X33016794Y-57334951D02*
X33059651Y-57292094D01*
X33059651Y-57292094D02*
X33102508Y-57206380D01*
X33102508Y-57206380D02*
X33102508Y-57120665D01*
X33102508Y-57120665D02*
X33059651Y-57034951D01*
X33059651Y-57034951D02*
X33016794Y-56992094D01*
X33016794Y-56992094D02*
X32931079Y-56949237D01*
X32931079Y-56949237D02*
X32716794Y-56949237D01*
X32716794Y-56949237D02*
X32588222Y-56992094D01*
X32288222Y-56949237D02*
X32073936Y-57849237D01*
X32073936Y-57849237D02*
X31902508Y-57206380D01*
X31902508Y-57206380D02*
X31731079Y-57849237D01*
X31731079Y-57849237D02*
X31516794Y-56949237D01*
X30788223Y-56949237D02*
X30959651Y-56949237D01*
X30959651Y-56949237D02*
X31045365Y-56992094D01*
X31045365Y-56992094D02*
X31088223Y-57034951D01*
X31088223Y-57034951D02*
X31173937Y-57163522D01*
X31173937Y-57163522D02*
X31216794Y-57334951D01*
X31216794Y-57334951D02*
X31216794Y-57677808D01*
X31216794Y-57677808D02*
X31173937Y-57763522D01*
X31173937Y-57763522D02*
X31131080Y-57806380D01*
X31131080Y-57806380D02*
X31045365Y-57849237D01*
X31045365Y-57849237D02*
X30873937Y-57849237D01*
X30873937Y-57849237D02*
X30788223Y-57806380D01*
X30788223Y-57806380D02*
X30745365Y-57763522D01*
X30745365Y-57763522D02*
X30702508Y-57677808D01*
X30702508Y-57677808D02*
X30702508Y-57463522D01*
X30702508Y-57463522D02*
X30745365Y-57377808D01*
X30745365Y-57377808D02*
X30788223Y-57334951D01*
X30788223Y-57334951D02*
X30873937Y-57292094D01*
X30873937Y-57292094D02*
X31045365Y-57292094D01*
X31045365Y-57292094D02*
X31131080Y-57334951D01*
X31131080Y-57334951D02*
X31173937Y-57377808D01*
X31173937Y-57377808D02*
X31216794Y-57463522D01*
X51102508Y-45780380D02*
X50973937Y-45823237D01*
X50973937Y-45823237D02*
X50759651Y-45823237D01*
X50759651Y-45823237D02*
X50673937Y-45780380D01*
X50673937Y-45780380D02*
X50631079Y-45737522D01*
X50631079Y-45737522D02*
X50588222Y-45651808D01*
X50588222Y-45651808D02*
X50588222Y-45566094D01*
X50588222Y-45566094D02*
X50631079Y-45480380D01*
X50631079Y-45480380D02*
X50673937Y-45437522D01*
X50673937Y-45437522D02*
X50759651Y-45394665D01*
X50759651Y-45394665D02*
X50931079Y-45351808D01*
X50931079Y-45351808D02*
X51016794Y-45308951D01*
X51016794Y-45308951D02*
X51059651Y-45266094D01*
X51059651Y-45266094D02*
X51102508Y-45180380D01*
X51102508Y-45180380D02*
X51102508Y-45094665D01*
X51102508Y-45094665D02*
X51059651Y-45008951D01*
X51059651Y-45008951D02*
X51016794Y-44966094D01*
X51016794Y-44966094D02*
X50931079Y-44923237D01*
X50931079Y-44923237D02*
X50716794Y-44923237D01*
X50716794Y-44923237D02*
X50588222Y-44966094D01*
X50288222Y-44923237D02*
X50073936Y-45823237D01*
X50073936Y-45823237D02*
X49902508Y-45180380D01*
X49902508Y-45180380D02*
X49731079Y-45823237D01*
X49731079Y-45823237D02*
X49516794Y-44923237D01*
X49259651Y-44923237D02*
X48659651Y-44923237D01*
X48659651Y-44923237D02*
X49045365Y-45823237D01*
X69102508Y-38922380D02*
X68973937Y-38965237D01*
X68973937Y-38965237D02*
X68759651Y-38965237D01*
X68759651Y-38965237D02*
X68673937Y-38922380D01*
X68673937Y-38922380D02*
X68631079Y-38879522D01*
X68631079Y-38879522D02*
X68588222Y-38793808D01*
X68588222Y-38793808D02*
X68588222Y-38708094D01*
X68588222Y-38708094D02*
X68631079Y-38622380D01*
X68631079Y-38622380D02*
X68673937Y-38579522D01*
X68673937Y-38579522D02*
X68759651Y-38536665D01*
X68759651Y-38536665D02*
X68931079Y-38493808D01*
X68931079Y-38493808D02*
X69016794Y-38450951D01*
X69016794Y-38450951D02*
X69059651Y-38408094D01*
X69059651Y-38408094D02*
X69102508Y-38322380D01*
X69102508Y-38322380D02*
X69102508Y-38236665D01*
X69102508Y-38236665D02*
X69059651Y-38150951D01*
X69059651Y-38150951D02*
X69016794Y-38108094D01*
X69016794Y-38108094D02*
X68931079Y-38065237D01*
X68931079Y-38065237D02*
X68716794Y-38065237D01*
X68716794Y-38065237D02*
X68588222Y-38108094D01*
X68288222Y-38065237D02*
X68073936Y-38965237D01*
X68073936Y-38965237D02*
X67902508Y-38322380D01*
X67902508Y-38322380D02*
X67731079Y-38965237D01*
X67731079Y-38965237D02*
X67516794Y-38065237D01*
X67045365Y-38450951D02*
X67131080Y-38408094D01*
X67131080Y-38408094D02*
X67173937Y-38365237D01*
X67173937Y-38365237D02*
X67216794Y-38279522D01*
X67216794Y-38279522D02*
X67216794Y-38236665D01*
X67216794Y-38236665D02*
X67173937Y-38150951D01*
X67173937Y-38150951D02*
X67131080Y-38108094D01*
X67131080Y-38108094D02*
X67045365Y-38065237D01*
X67045365Y-38065237D02*
X66873937Y-38065237D01*
X66873937Y-38065237D02*
X66788223Y-38108094D01*
X66788223Y-38108094D02*
X66745365Y-38150951D01*
X66745365Y-38150951D02*
X66702508Y-38236665D01*
X66702508Y-38236665D02*
X66702508Y-38279522D01*
X66702508Y-38279522D02*
X66745365Y-38365237D01*
X66745365Y-38365237D02*
X66788223Y-38408094D01*
X66788223Y-38408094D02*
X66873937Y-38450951D01*
X66873937Y-38450951D02*
X67045365Y-38450951D01*
X67045365Y-38450951D02*
X67131080Y-38493808D01*
X67131080Y-38493808D02*
X67173937Y-38536665D01*
X67173937Y-38536665D02*
X67216794Y-38622380D01*
X67216794Y-38622380D02*
X67216794Y-38793808D01*
X67216794Y-38793808D02*
X67173937Y-38879522D01*
X67173937Y-38879522D02*
X67131080Y-38922380D01*
X67131080Y-38922380D02*
X67045365Y-38965237D01*
X67045365Y-38965237D02*
X66873937Y-38965237D01*
X66873937Y-38965237D02*
X66788223Y-38922380D01*
X66788223Y-38922380D02*
X66745365Y-38879522D01*
X66745365Y-38879522D02*
X66702508Y-38793808D01*
X66702508Y-38793808D02*
X66702508Y-38622380D01*
X66702508Y-38622380D02*
X66745365Y-38536665D01*
X66745365Y-38536665D02*
X66788223Y-38493808D01*
X66788223Y-38493808D02*
X66873937Y-38450951D01*
X87102508Y-44256380D02*
X86973937Y-44299237D01*
X86973937Y-44299237D02*
X86759651Y-44299237D01*
X86759651Y-44299237D02*
X86673937Y-44256380D01*
X86673937Y-44256380D02*
X86631079Y-44213522D01*
X86631079Y-44213522D02*
X86588222Y-44127808D01*
X86588222Y-44127808D02*
X86588222Y-44042094D01*
X86588222Y-44042094D02*
X86631079Y-43956380D01*
X86631079Y-43956380D02*
X86673937Y-43913522D01*
X86673937Y-43913522D02*
X86759651Y-43870665D01*
X86759651Y-43870665D02*
X86931079Y-43827808D01*
X86931079Y-43827808D02*
X87016794Y-43784951D01*
X87016794Y-43784951D02*
X87059651Y-43742094D01*
X87059651Y-43742094D02*
X87102508Y-43656380D01*
X87102508Y-43656380D02*
X87102508Y-43570665D01*
X87102508Y-43570665D02*
X87059651Y-43484951D01*
X87059651Y-43484951D02*
X87016794Y-43442094D01*
X87016794Y-43442094D02*
X86931079Y-43399237D01*
X86931079Y-43399237D02*
X86716794Y-43399237D01*
X86716794Y-43399237D02*
X86588222Y-43442094D01*
X86288222Y-43399237D02*
X86073936Y-44299237D01*
X86073936Y-44299237D02*
X85902508Y-43656380D01*
X85902508Y-43656380D02*
X85731079Y-44299237D01*
X85731079Y-44299237D02*
X85516794Y-43399237D01*
X85131080Y-44299237D02*
X84959651Y-44299237D01*
X84959651Y-44299237D02*
X84873937Y-44256380D01*
X84873937Y-44256380D02*
X84831080Y-44213522D01*
X84831080Y-44213522D02*
X84745365Y-44084951D01*
X84745365Y-44084951D02*
X84702508Y-43913522D01*
X84702508Y-43913522D02*
X84702508Y-43570665D01*
X84702508Y-43570665D02*
X84745365Y-43484951D01*
X84745365Y-43484951D02*
X84788223Y-43442094D01*
X84788223Y-43442094D02*
X84873937Y-43399237D01*
X84873937Y-43399237D02*
X85045365Y-43399237D01*
X85045365Y-43399237D02*
X85131080Y-43442094D01*
X85131080Y-43442094D02*
X85173937Y-43484951D01*
X85173937Y-43484951D02*
X85216794Y-43570665D01*
X85216794Y-43570665D02*
X85216794Y-43784951D01*
X85216794Y-43784951D02*
X85173937Y-43870665D01*
X85173937Y-43870665D02*
X85131080Y-43913522D01*
X85131080Y-43913522D02*
X85045365Y-43956380D01*
X85045365Y-43956380D02*
X84873937Y-43956380D01*
X84873937Y-43956380D02*
X84788223Y-43913522D01*
X84788223Y-43913522D02*
X84745365Y-43870665D01*
X84745365Y-43870665D02*
X84702508Y-43784951D01*
X105082508Y-46796380D02*
X104953937Y-46839237D01*
X104953937Y-46839237D02*
X104739651Y-46839237D01*
X104739651Y-46839237D02*
X104653937Y-46796380D01*
X104653937Y-46796380D02*
X104611079Y-46753522D01*
X104611079Y-46753522D02*
X104568222Y-46667808D01*
X104568222Y-46667808D02*
X104568222Y-46582094D01*
X104568222Y-46582094D02*
X104611079Y-46496380D01*
X104611079Y-46496380D02*
X104653937Y-46453522D01*
X104653937Y-46453522D02*
X104739651Y-46410665D01*
X104739651Y-46410665D02*
X104911079Y-46367808D01*
X104911079Y-46367808D02*
X104996794Y-46324951D01*
X104996794Y-46324951D02*
X105039651Y-46282094D01*
X105039651Y-46282094D02*
X105082508Y-46196380D01*
X105082508Y-46196380D02*
X105082508Y-46110665D01*
X105082508Y-46110665D02*
X105039651Y-46024951D01*
X105039651Y-46024951D02*
X104996794Y-45982094D01*
X104996794Y-45982094D02*
X104911079Y-45939237D01*
X104911079Y-45939237D02*
X104696794Y-45939237D01*
X104696794Y-45939237D02*
X104568222Y-45982094D01*
X104268222Y-45939237D02*
X104053936Y-46839237D01*
X104053936Y-46839237D02*
X103882508Y-46196380D01*
X103882508Y-46196380D02*
X103711079Y-46839237D01*
X103711079Y-46839237D02*
X103496794Y-45939237D01*
X102682508Y-46839237D02*
X103196794Y-46839237D01*
X102939651Y-46839237D02*
X102939651Y-45939237D01*
X102939651Y-45939237D02*
X103025365Y-46067808D01*
X103025365Y-46067808D02*
X103111080Y-46153522D01*
X103111080Y-46153522D02*
X103196794Y-46196380D01*
X102125365Y-45939237D02*
X102039651Y-45939237D01*
X102039651Y-45939237D02*
X101953937Y-45982094D01*
X101953937Y-45982094D02*
X101911080Y-46024951D01*
X101911080Y-46024951D02*
X101868222Y-46110665D01*
X101868222Y-46110665D02*
X101825365Y-46282094D01*
X101825365Y-46282094D02*
X101825365Y-46496380D01*
X101825365Y-46496380D02*
X101868222Y-46667808D01*
X101868222Y-46667808D02*
X101911080Y-46753522D01*
X101911080Y-46753522D02*
X101953937Y-46796380D01*
X101953937Y-46796380D02*
X102039651Y-46839237D01*
X102039651Y-46839237D02*
X102125365Y-46839237D01*
X102125365Y-46839237D02*
X102211080Y-46796380D01*
X102211080Y-46796380D02*
X102253937Y-46753522D01*
X102253937Y-46753522D02*
X102296794Y-46667808D01*
X102296794Y-46667808D02*
X102339651Y-46496380D01*
X102339651Y-46496380D02*
X102339651Y-46282094D01*
X102339651Y-46282094D02*
X102296794Y-46110665D01*
X102296794Y-46110665D02*
X102253937Y-46024951D01*
X102253937Y-46024951D02*
X102211080Y-45982094D01*
X102211080Y-45982094D02*
X102125365Y-45939237D01*
X33102508Y-74806380D02*
X32973937Y-74849237D01*
X32973937Y-74849237D02*
X32759651Y-74849237D01*
X32759651Y-74849237D02*
X32673937Y-74806380D01*
X32673937Y-74806380D02*
X32631079Y-74763522D01*
X32631079Y-74763522D02*
X32588222Y-74677808D01*
X32588222Y-74677808D02*
X32588222Y-74592094D01*
X32588222Y-74592094D02*
X32631079Y-74506380D01*
X32631079Y-74506380D02*
X32673937Y-74463522D01*
X32673937Y-74463522D02*
X32759651Y-74420665D01*
X32759651Y-74420665D02*
X32931079Y-74377808D01*
X32931079Y-74377808D02*
X33016794Y-74334951D01*
X33016794Y-74334951D02*
X33059651Y-74292094D01*
X33059651Y-74292094D02*
X33102508Y-74206380D01*
X33102508Y-74206380D02*
X33102508Y-74120665D01*
X33102508Y-74120665D02*
X33059651Y-74034951D01*
X33059651Y-74034951D02*
X33016794Y-73992094D01*
X33016794Y-73992094D02*
X32931079Y-73949237D01*
X32931079Y-73949237D02*
X32716794Y-73949237D01*
X32716794Y-73949237D02*
X32588222Y-73992094D01*
X32288222Y-73949237D02*
X32073936Y-74849237D01*
X32073936Y-74849237D02*
X31902508Y-74206380D01*
X31902508Y-74206380D02*
X31731079Y-74849237D01*
X31731079Y-74849237D02*
X31516794Y-73949237D01*
X30702508Y-74849237D02*
X31216794Y-74849237D01*
X30959651Y-74849237D02*
X30959651Y-73949237D01*
X30959651Y-73949237D02*
X31045365Y-74077808D01*
X31045365Y-74077808D02*
X31131080Y-74163522D01*
X31131080Y-74163522D02*
X31216794Y-74206380D01*
X29845365Y-74849237D02*
X30359651Y-74849237D01*
X30102508Y-74849237D02*
X30102508Y-73949237D01*
X30102508Y-73949237D02*
X30188222Y-74077808D01*
X30188222Y-74077808D02*
X30273937Y-74163522D01*
X30273937Y-74163522D02*
X30359651Y-74206380D01*
X51102508Y-62798380D02*
X50973937Y-62841237D01*
X50973937Y-62841237D02*
X50759651Y-62841237D01*
X50759651Y-62841237D02*
X50673937Y-62798380D01*
X50673937Y-62798380D02*
X50631079Y-62755522D01*
X50631079Y-62755522D02*
X50588222Y-62669808D01*
X50588222Y-62669808D02*
X50588222Y-62584094D01*
X50588222Y-62584094D02*
X50631079Y-62498380D01*
X50631079Y-62498380D02*
X50673937Y-62455522D01*
X50673937Y-62455522D02*
X50759651Y-62412665D01*
X50759651Y-62412665D02*
X50931079Y-62369808D01*
X50931079Y-62369808D02*
X51016794Y-62326951D01*
X51016794Y-62326951D02*
X51059651Y-62284094D01*
X51059651Y-62284094D02*
X51102508Y-62198380D01*
X51102508Y-62198380D02*
X51102508Y-62112665D01*
X51102508Y-62112665D02*
X51059651Y-62026951D01*
X51059651Y-62026951D02*
X51016794Y-61984094D01*
X51016794Y-61984094D02*
X50931079Y-61941237D01*
X50931079Y-61941237D02*
X50716794Y-61941237D01*
X50716794Y-61941237D02*
X50588222Y-61984094D01*
X50288222Y-61941237D02*
X50073936Y-62841237D01*
X50073936Y-62841237D02*
X49902508Y-62198380D01*
X49902508Y-62198380D02*
X49731079Y-62841237D01*
X49731079Y-62841237D02*
X49516794Y-61941237D01*
X48702508Y-62841237D02*
X49216794Y-62841237D01*
X48959651Y-62841237D02*
X48959651Y-61941237D01*
X48959651Y-61941237D02*
X49045365Y-62069808D01*
X49045365Y-62069808D02*
X49131080Y-62155522D01*
X49131080Y-62155522D02*
X49216794Y-62198380D01*
X48359651Y-62026951D02*
X48316794Y-61984094D01*
X48316794Y-61984094D02*
X48231080Y-61941237D01*
X48231080Y-61941237D02*
X48016794Y-61941237D01*
X48016794Y-61941237D02*
X47931080Y-61984094D01*
X47931080Y-61984094D02*
X47888222Y-62026951D01*
X47888222Y-62026951D02*
X47845365Y-62112665D01*
X47845365Y-62112665D02*
X47845365Y-62198380D01*
X47845365Y-62198380D02*
X47888222Y-62326951D01*
X47888222Y-62326951D02*
X48402508Y-62841237D01*
X48402508Y-62841237D02*
X47845365Y-62841237D01*
X69102508Y-55940380D02*
X68973937Y-55983237D01*
X68973937Y-55983237D02*
X68759651Y-55983237D01*
X68759651Y-55983237D02*
X68673937Y-55940380D01*
X68673937Y-55940380D02*
X68631079Y-55897522D01*
X68631079Y-55897522D02*
X68588222Y-55811808D01*
X68588222Y-55811808D02*
X68588222Y-55726094D01*
X68588222Y-55726094D02*
X68631079Y-55640380D01*
X68631079Y-55640380D02*
X68673937Y-55597522D01*
X68673937Y-55597522D02*
X68759651Y-55554665D01*
X68759651Y-55554665D02*
X68931079Y-55511808D01*
X68931079Y-55511808D02*
X69016794Y-55468951D01*
X69016794Y-55468951D02*
X69059651Y-55426094D01*
X69059651Y-55426094D02*
X69102508Y-55340380D01*
X69102508Y-55340380D02*
X69102508Y-55254665D01*
X69102508Y-55254665D02*
X69059651Y-55168951D01*
X69059651Y-55168951D02*
X69016794Y-55126094D01*
X69016794Y-55126094D02*
X68931079Y-55083237D01*
X68931079Y-55083237D02*
X68716794Y-55083237D01*
X68716794Y-55083237D02*
X68588222Y-55126094D01*
X68288222Y-55083237D02*
X68073936Y-55983237D01*
X68073936Y-55983237D02*
X67902508Y-55340380D01*
X67902508Y-55340380D02*
X67731079Y-55983237D01*
X67731079Y-55983237D02*
X67516794Y-55083237D01*
X66702508Y-55983237D02*
X67216794Y-55983237D01*
X66959651Y-55983237D02*
X66959651Y-55083237D01*
X66959651Y-55083237D02*
X67045365Y-55211808D01*
X67045365Y-55211808D02*
X67131080Y-55297522D01*
X67131080Y-55297522D02*
X67216794Y-55340380D01*
X66402508Y-55083237D02*
X65845365Y-55083237D01*
X65845365Y-55083237D02*
X66145365Y-55426094D01*
X66145365Y-55426094D02*
X66016794Y-55426094D01*
X66016794Y-55426094D02*
X65931080Y-55468951D01*
X65931080Y-55468951D02*
X65888222Y-55511808D01*
X65888222Y-55511808D02*
X65845365Y-55597522D01*
X65845365Y-55597522D02*
X65845365Y-55811808D01*
X65845365Y-55811808D02*
X65888222Y-55897522D01*
X65888222Y-55897522D02*
X65931080Y-55940380D01*
X65931080Y-55940380D02*
X66016794Y-55983237D01*
X66016794Y-55983237D02*
X66273937Y-55983237D01*
X66273937Y-55983237D02*
X66359651Y-55940380D01*
X66359651Y-55940380D02*
X66402508Y-55897522D01*
X87102508Y-61274380D02*
X86973937Y-61317237D01*
X86973937Y-61317237D02*
X86759651Y-61317237D01*
X86759651Y-61317237D02*
X86673937Y-61274380D01*
X86673937Y-61274380D02*
X86631079Y-61231522D01*
X86631079Y-61231522D02*
X86588222Y-61145808D01*
X86588222Y-61145808D02*
X86588222Y-61060094D01*
X86588222Y-61060094D02*
X86631079Y-60974380D01*
X86631079Y-60974380D02*
X86673937Y-60931522D01*
X86673937Y-60931522D02*
X86759651Y-60888665D01*
X86759651Y-60888665D02*
X86931079Y-60845808D01*
X86931079Y-60845808D02*
X87016794Y-60802951D01*
X87016794Y-60802951D02*
X87059651Y-60760094D01*
X87059651Y-60760094D02*
X87102508Y-60674380D01*
X87102508Y-60674380D02*
X87102508Y-60588665D01*
X87102508Y-60588665D02*
X87059651Y-60502951D01*
X87059651Y-60502951D02*
X87016794Y-60460094D01*
X87016794Y-60460094D02*
X86931079Y-60417237D01*
X86931079Y-60417237D02*
X86716794Y-60417237D01*
X86716794Y-60417237D02*
X86588222Y-60460094D01*
X86288222Y-60417237D02*
X86073936Y-61317237D01*
X86073936Y-61317237D02*
X85902508Y-60674380D01*
X85902508Y-60674380D02*
X85731079Y-61317237D01*
X85731079Y-61317237D02*
X85516794Y-60417237D01*
X84702508Y-61317237D02*
X85216794Y-61317237D01*
X84959651Y-61317237D02*
X84959651Y-60417237D01*
X84959651Y-60417237D02*
X85045365Y-60545808D01*
X85045365Y-60545808D02*
X85131080Y-60631522D01*
X85131080Y-60631522D02*
X85216794Y-60674380D01*
X83931080Y-60717237D02*
X83931080Y-61317237D01*
X84145365Y-60374380D02*
X84359651Y-61017237D01*
X84359651Y-61017237D02*
X83802508Y-61017237D01*
X105082508Y-63814380D02*
X104953937Y-63857237D01*
X104953937Y-63857237D02*
X104739651Y-63857237D01*
X104739651Y-63857237D02*
X104653937Y-63814380D01*
X104653937Y-63814380D02*
X104611079Y-63771522D01*
X104611079Y-63771522D02*
X104568222Y-63685808D01*
X104568222Y-63685808D02*
X104568222Y-63600094D01*
X104568222Y-63600094D02*
X104611079Y-63514380D01*
X104611079Y-63514380D02*
X104653937Y-63471522D01*
X104653937Y-63471522D02*
X104739651Y-63428665D01*
X104739651Y-63428665D02*
X104911079Y-63385808D01*
X104911079Y-63385808D02*
X104996794Y-63342951D01*
X104996794Y-63342951D02*
X105039651Y-63300094D01*
X105039651Y-63300094D02*
X105082508Y-63214380D01*
X105082508Y-63214380D02*
X105082508Y-63128665D01*
X105082508Y-63128665D02*
X105039651Y-63042951D01*
X105039651Y-63042951D02*
X104996794Y-63000094D01*
X104996794Y-63000094D02*
X104911079Y-62957237D01*
X104911079Y-62957237D02*
X104696794Y-62957237D01*
X104696794Y-62957237D02*
X104568222Y-63000094D01*
X104268222Y-62957237D02*
X104053936Y-63857237D01*
X104053936Y-63857237D02*
X103882508Y-63214380D01*
X103882508Y-63214380D02*
X103711079Y-63857237D01*
X103711079Y-63857237D02*
X103496794Y-62957237D01*
X102682508Y-63857237D02*
X103196794Y-63857237D01*
X102939651Y-63857237D02*
X102939651Y-62957237D01*
X102939651Y-62957237D02*
X103025365Y-63085808D01*
X103025365Y-63085808D02*
X103111080Y-63171522D01*
X103111080Y-63171522D02*
X103196794Y-63214380D01*
X101868222Y-62957237D02*
X102296794Y-62957237D01*
X102296794Y-62957237D02*
X102339651Y-63385808D01*
X102339651Y-63385808D02*
X102296794Y-63342951D01*
X102296794Y-63342951D02*
X102211080Y-63300094D01*
X102211080Y-63300094D02*
X101996794Y-63300094D01*
X101996794Y-63300094D02*
X101911080Y-63342951D01*
X101911080Y-63342951D02*
X101868222Y-63385808D01*
X101868222Y-63385808D02*
X101825365Y-63471522D01*
X101825365Y-63471522D02*
X101825365Y-63685808D01*
X101825365Y-63685808D02*
X101868222Y-63771522D01*
X101868222Y-63771522D02*
X101911080Y-63814380D01*
X101911080Y-63814380D02*
X101996794Y-63857237D01*
X101996794Y-63857237D02*
X102211080Y-63857237D01*
X102211080Y-63857237D02*
X102296794Y-63814380D01*
X102296794Y-63814380D02*
X102339651Y-63771522D01*
X103577788Y-98677909D02*
X103445013Y-98650739D01*
X103445013Y-98650739D02*
X103259436Y-98543596D01*
X103259436Y-98543596D02*
X103206634Y-98463623D01*
X103206634Y-98463623D02*
X103190947Y-98405079D01*
X103190947Y-98405079D02*
X103196689Y-98309420D01*
X103196689Y-98309420D02*
X103239546Y-98235189D01*
X103239546Y-98235189D02*
X103319518Y-98182387D01*
X103319518Y-98182387D02*
X103378062Y-98166700D01*
X103378062Y-98166700D02*
X103473722Y-98172442D01*
X103473722Y-98172442D02*
X103643612Y-98221041D01*
X103643612Y-98221041D02*
X103739271Y-98226783D01*
X103739271Y-98226783D02*
X103797815Y-98211096D01*
X103797815Y-98211096D02*
X103877788Y-98158294D01*
X103877788Y-98158294D02*
X103920645Y-98084063D01*
X103920645Y-98084063D02*
X103926386Y-97988404D01*
X103926386Y-97988404D02*
X103910700Y-97929860D01*
X103910700Y-97929860D02*
X103857898Y-97849887D01*
X103857898Y-97849887D02*
X103672321Y-97742744D01*
X103672321Y-97742744D02*
X103539546Y-97715574D01*
X103301167Y-97528458D02*
X102665590Y-98200738D01*
X102665590Y-98200738D02*
X102838557Y-97558294D01*
X102838557Y-97558294D02*
X102368667Y-98029310D01*
X102368667Y-98029310D02*
X102633090Y-97142744D01*
X101477898Y-97515024D02*
X101923283Y-97772167D01*
X101700591Y-97643596D02*
X102150591Y-96864173D01*
X102150591Y-96864173D02*
X102160536Y-97018376D01*
X102160536Y-97018376D02*
X102191909Y-97135464D01*
X102191909Y-97135464D02*
X102244711Y-97215437D01*
X101668091Y-96585601D02*
X101148475Y-96285601D01*
X101148475Y-96285601D02*
X101032514Y-97257881D01*
X86138220Y-92281123D02*
X86002938Y-92289243D01*
X86002938Y-92289243D02*
X85795954Y-92233782D01*
X85795954Y-92233782D02*
X85724252Y-92170201D01*
X85724252Y-92170201D02*
X85693948Y-92117712D01*
X85693948Y-92117712D02*
X85674735Y-92023826D01*
X85674735Y-92023826D02*
X85696920Y-91941032D01*
X85696920Y-91941032D02*
X85760501Y-91869331D01*
X85760501Y-91869331D02*
X85812990Y-91839026D01*
X85812990Y-91839026D02*
X85906876Y-91819814D01*
X85906876Y-91819814D02*
X86083556Y-91822786D01*
X86083556Y-91822786D02*
X86177441Y-91803574D01*
X86177441Y-91803574D02*
X86229931Y-91773269D01*
X86229931Y-91773269D02*
X86293512Y-91701568D01*
X86293512Y-91701568D02*
X86315696Y-91618774D01*
X86315696Y-91618774D02*
X86296484Y-91524888D01*
X86296484Y-91524888D02*
X86266179Y-91472399D01*
X86266179Y-91472399D02*
X86194478Y-91408818D01*
X86194478Y-91408818D02*
X85987494Y-91353357D01*
X85987494Y-91353357D02*
X85852211Y-91361477D01*
X85573526Y-91242434D02*
X85133604Y-92056306D01*
X85133604Y-92056306D02*
X85134401Y-91390985D01*
X85134401Y-91390985D02*
X84802430Y-91967568D01*
X84802430Y-91967568D02*
X84828383Y-91042774D01*
X83808906Y-91701354D02*
X84305668Y-91834461D01*
X84057287Y-91767908D02*
X84290225Y-90898575D01*
X84290225Y-90898575D02*
X84339741Y-91044950D01*
X84339741Y-91044950D02*
X84400351Y-91149928D01*
X84400351Y-91149928D02*
X84472052Y-91213509D01*
X83296701Y-90632361D02*
X83462288Y-90676730D01*
X83462288Y-90676730D02*
X83533989Y-90740311D01*
X83533989Y-90740311D02*
X83564294Y-90792800D01*
X83564294Y-90792800D02*
X83613811Y-90939175D01*
X83613811Y-90939175D02*
X83610839Y-91115855D01*
X83610839Y-91115855D02*
X83522101Y-91447029D01*
X83522101Y-91447029D02*
X83458519Y-91518731D01*
X83458519Y-91518731D02*
X83406030Y-91549035D01*
X83406030Y-91549035D02*
X83312144Y-91568247D01*
X83312144Y-91568247D02*
X83146557Y-91523878D01*
X83146557Y-91523878D02*
X83074856Y-91460297D01*
X83074856Y-91460297D02*
X83044551Y-91407808D01*
X83044551Y-91407808D02*
X83025339Y-91313922D01*
X83025339Y-91313922D02*
X83080800Y-91106938D01*
X83080800Y-91106938D02*
X83144381Y-91035237D01*
X83144381Y-91035237D02*
X83196870Y-91004932D01*
X83196870Y-91004932D02*
X83290756Y-90985720D01*
X83290756Y-90985720D02*
X83456344Y-91030089D01*
X83456344Y-91030089D02*
X83528045Y-91093670D01*
X83528045Y-91093670D02*
X83558350Y-91146159D01*
X83558350Y-91146159D02*
X83577562Y-91240045D01*
D11*
X96458077Y-26408959D02*
X96618420Y-25830781D01*
X96618420Y-25830781D02*
X96398162Y-25769698D01*
X96398162Y-25769698D02*
X96335462Y-25781959D01*
X96335462Y-25781959D02*
X96300294Y-25801856D01*
X96300294Y-25801856D02*
X96257491Y-25849285D01*
X96257491Y-25849285D02*
X96234585Y-25931882D01*
X96234585Y-25931882D02*
X96246847Y-25994582D01*
X96246847Y-25994582D02*
X96266744Y-26029750D01*
X96266744Y-26029750D02*
X96314173Y-26072553D01*
X96314173Y-26072553D02*
X96534431Y-26133636D01*
X95930113Y-25639896D02*
X95819984Y-25609355D01*
X95819984Y-25609355D02*
X95757284Y-25621616D01*
X95757284Y-25621616D02*
X95686948Y-25661410D01*
X95686948Y-25661410D02*
X95628875Y-25763904D01*
X95628875Y-25763904D02*
X95575427Y-25956630D01*
X95575427Y-25956630D02*
X95572418Y-26074394D01*
X95572418Y-26074394D02*
X95612212Y-26144730D01*
X95612212Y-26144730D02*
X95659641Y-26187533D01*
X95659641Y-26187533D02*
X95769770Y-26218074D01*
X95769770Y-26218074D02*
X95832470Y-26205813D01*
X95832470Y-26205813D02*
X95902805Y-26166019D01*
X95902805Y-26166019D02*
X95960879Y-26063525D01*
X95960879Y-26063525D02*
X96014327Y-25870799D01*
X96014327Y-25870799D02*
X96017336Y-25753034D01*
X96017336Y-25753034D02*
X95977542Y-25682699D01*
X95977542Y-25682699D02*
X95930113Y-25639896D01*
X95489597Y-25517730D02*
X95191592Y-26057731D01*
X95191592Y-26057731D02*
X95195994Y-25614205D01*
X95195994Y-25614205D02*
X94971334Y-25996648D01*
X94971334Y-25996648D02*
X94994015Y-25380293D01*
X94697403Y-25594533D02*
X94504677Y-25541086D01*
X94338091Y-25821035D02*
X94613414Y-25897388D01*
X94613414Y-25897388D02*
X94773757Y-25319210D01*
X94773757Y-25319210D02*
X94498434Y-25242856D01*
X93759913Y-25660692D02*
X94028993Y-25438816D01*
X94090301Y-25752316D02*
X94250644Y-25174138D01*
X94250644Y-25174138D02*
X94030385Y-25113055D01*
X94030385Y-25113055D02*
X93967685Y-25125316D01*
X93967685Y-25125316D02*
X93932518Y-25145213D01*
X93932518Y-25145213D02*
X93889714Y-25192643D01*
X93889714Y-25192643D02*
X93866808Y-25275239D01*
X93866808Y-25275239D02*
X93879070Y-25337939D01*
X93879070Y-25337939D02*
X93898967Y-25373107D01*
X93898967Y-25373107D02*
X93946396Y-25415910D01*
X93946396Y-25415910D02*
X94166654Y-25476993D01*
X93106773Y-25449910D02*
X93016541Y-25454536D01*
X93016541Y-25454536D02*
X92878879Y-25416359D01*
X92878879Y-25416359D02*
X92831450Y-25373556D01*
X92831450Y-25373556D02*
X92811553Y-25338389D01*
X92811553Y-25338389D02*
X92799292Y-25275689D01*
X92799292Y-25275689D02*
X92814562Y-25220624D01*
X92814562Y-25220624D02*
X92857365Y-25173195D01*
X92857365Y-25173195D02*
X92892533Y-25153298D01*
X92892533Y-25153298D02*
X92955233Y-25141036D01*
X92955233Y-25141036D02*
X93072998Y-25144046D01*
X93072998Y-25144046D02*
X93135698Y-25131784D01*
X93135698Y-25131784D02*
X93170865Y-25111887D01*
X93170865Y-25111887D02*
X93213668Y-25064458D01*
X93213668Y-25064458D02*
X93228939Y-25009393D01*
X93228939Y-25009393D02*
X93216678Y-24946693D01*
X93216678Y-24946693D02*
X93196781Y-24911526D01*
X93196781Y-24911526D02*
X93149351Y-24868723D01*
X93149351Y-24868723D02*
X93011690Y-24830546D01*
X93011690Y-24830546D02*
X92921458Y-24835172D01*
X92736367Y-24754192D02*
X92438362Y-25294193D01*
X92438362Y-25294193D02*
X92442764Y-24850667D01*
X92442764Y-24850667D02*
X92218104Y-25233110D01*
X92218104Y-25233110D02*
X92240785Y-24616755D01*
X86084181Y-25166019D02*
X86417514Y-24689828D01*
X86655609Y-25166019D02*
X86655609Y-24166019D01*
X86655609Y-24166019D02*
X86274657Y-24166019D01*
X86274657Y-24166019D02*
X86179419Y-24213638D01*
X86179419Y-24213638D02*
X86131800Y-24261257D01*
X86131800Y-24261257D02*
X86084181Y-24356495D01*
X86084181Y-24356495D02*
X86084181Y-24499352D01*
X86084181Y-24499352D02*
X86131800Y-24594590D01*
X86131800Y-24594590D02*
X86179419Y-24642209D01*
X86179419Y-24642209D02*
X86274657Y-24689828D01*
X86274657Y-24689828D02*
X86655609Y-24689828D01*
X85655609Y-24642209D02*
X85322276Y-24642209D01*
X85179419Y-25166019D02*
X85655609Y-25166019D01*
X85655609Y-25166019D02*
X85655609Y-24166019D01*
X85655609Y-24166019D02*
X85179419Y-24166019D01*
X84798466Y-25118400D02*
X84655609Y-25166019D01*
X84655609Y-25166019D02*
X84417514Y-25166019D01*
X84417514Y-25166019D02*
X84322276Y-25118400D01*
X84322276Y-25118400D02*
X84274657Y-25070780D01*
X84274657Y-25070780D02*
X84227038Y-24975542D01*
X84227038Y-24975542D02*
X84227038Y-24880304D01*
X84227038Y-24880304D02*
X84274657Y-24785066D01*
X84274657Y-24785066D02*
X84322276Y-24737447D01*
X84322276Y-24737447D02*
X84417514Y-24689828D01*
X84417514Y-24689828D02*
X84607990Y-24642209D01*
X84607990Y-24642209D02*
X84703228Y-24594590D01*
X84703228Y-24594590D02*
X84750847Y-24546971D01*
X84750847Y-24546971D02*
X84798466Y-24451733D01*
X84798466Y-24451733D02*
X84798466Y-24356495D01*
X84798466Y-24356495D02*
X84750847Y-24261257D01*
X84750847Y-24261257D02*
X84703228Y-24213638D01*
X84703228Y-24213638D02*
X84607990Y-24166019D01*
X84607990Y-24166019D02*
X84369895Y-24166019D01*
X84369895Y-24166019D02*
X84227038Y-24213638D01*
X83798466Y-24642209D02*
X83465133Y-24642209D01*
X83322276Y-25166019D02*
X83798466Y-25166019D01*
X83798466Y-25166019D02*
X83798466Y-24166019D01*
X83798466Y-24166019D02*
X83322276Y-24166019D01*
X83036561Y-24166019D02*
X82465133Y-24166019D01*
X82750847Y-25166019D02*
X82750847Y-24166019D01*
%TO.C,B+*%
X125492000Y-44974000D02*
X127492000Y-44974000D01*
X125492000Y-46974000D02*
X125492000Y-44974000D01*
X127492000Y-44974000D02*
X127492000Y-46974000D01*
X127492000Y-46974000D02*
X125492000Y-46974000D01*
%TO.C,B-*%
X110252000Y-44974000D02*
X112252000Y-44974000D01*
X110252000Y-46974000D02*
X110252000Y-44974000D01*
X112252000Y-44974000D02*
X112252000Y-46974000D01*
X112252000Y-46974000D02*
X110252000Y-46974000D01*
%TO.C,SW1*%
D10*
X33938000Y-39222000D02*
X31906000Y-39222000D01*
X33938000Y-39222000D02*
X33938000Y-41254000D01*
%TO.C,SW2*%
X51938000Y-27222000D02*
X49906000Y-27222000D01*
X51938000Y-27222000D02*
X51938000Y-29254000D01*
%TO.C,SW3*%
X69938000Y-20222000D02*
X67906000Y-20222000D01*
X69938000Y-20222000D02*
X69938000Y-22254000D01*
%TO.C,SW4*%
X87938000Y-25722000D02*
X85906000Y-25722000D01*
X87938000Y-25722000D02*
X87938000Y-27754000D01*
%TO.C,SW5*%
X105938000Y-28222000D02*
X103906000Y-28222000D01*
X105938000Y-28222000D02*
X105938000Y-30254000D01*
%TO.C,SW6*%
X33938000Y-56222000D02*
X31906000Y-56222000D01*
X33938000Y-56222000D02*
X33938000Y-58254000D01*
%TO.C,SW7*%
X51938000Y-44196000D02*
X49906000Y-44196000D01*
X51938000Y-44196000D02*
X51938000Y-46228000D01*
%TO.C,SW8*%
X69938000Y-37338000D02*
X67906000Y-37338000D01*
X69938000Y-37338000D02*
X69938000Y-39370000D01*
%TO.C,SW9*%
X87938000Y-42672000D02*
X85906000Y-42672000D01*
X87938000Y-42672000D02*
X87938000Y-44704000D01*
%TO.C,SW10*%
X105918000Y-45212000D02*
X103886000Y-45212000D01*
X105918000Y-45212000D02*
X105918000Y-47244000D01*
%TO.C,SW11*%
X33938000Y-73222000D02*
X31906000Y-73222000D01*
X33938000Y-73222000D02*
X33938000Y-75254000D01*
%TO.C,SW12*%
X51938000Y-61214000D02*
X49906000Y-61214000D01*
X51938000Y-61214000D02*
X51938000Y-63246000D01*
%TO.C,SW13*%
X69938000Y-54356000D02*
X67906000Y-54356000D01*
X69938000Y-54356000D02*
X69938000Y-56388000D01*
%TO.C,SW14*%
X87938000Y-59690000D02*
X85906000Y-59690000D01*
X87938000Y-59690000D02*
X87938000Y-61722000D01*
%TO.C,SW15*%
X105918000Y-62230000D02*
X103886000Y-62230000D01*
X105918000Y-62230000D02*
X105918000Y-64262000D01*
%TO.C,SW17*%
X99987798Y-97290202D02*
X101003798Y-95530439D01*
X99987798Y-97290202D02*
X101747561Y-98306202D01*
%TO.C,SW16*%
X82396700Y-91879338D02*
X82922620Y-89916577D01*
X82396700Y-91879338D02*
X84359461Y-92405259D01*
%TO.C,U1*%
D11*
X109982000Y-47752000D02*
X109982000Y-78232000D01*
X109982000Y-47752000D02*
X127762000Y-47752000D01*
X127762000Y-47752000D02*
X127762000Y-78232000D01*
X127762000Y-78232000D02*
X109982000Y-78232000D01*
%TO.C,REF\u002A\u002A*%
D16*
X52260000Y-40122500D02*
G75*
G02*
X53293864Y-35971956I20320120J-2857530D01*
G01*
X53293865Y-49988046D02*
G75*
G02*
X52260000Y-45837500I19286135J7008046D01*
G01*
X65571954Y-23693865D02*
G75*
G02*
X69722500Y-22660000I7008046J-19286135D01*
G01*
X69722500Y-63300000D02*
G75*
G02*
X65571955Y-62266135I2857500J20320000D01*
G01*
X71451615Y-32244136D02*
G75*
G02*
X72580000Y-32185000I1128379J-10735785D01*
G01*
X72580000Y-32185000D02*
G75*
G02*
X73708385Y-32244137I0J-10794900D01*
G01*
X72580000Y-53775000D02*
G75*
G02*
X71451615Y-53715864I-6J10794921D01*
G01*
X73708385Y-53715864D02*
G75*
G02*
X72580000Y-53775001I-1128385J10735764D01*
G01*
X75437500Y-22660000D02*
G75*
G02*
X79588049Y-23693866I-2857500J-20320000D01*
G01*
X79588045Y-62266135D02*
G75*
G02*
X75437500Y-63300000I-7008051J19286154D01*
G01*
X91866134Y-35971952D02*
G75*
G02*
X92900000Y-40122500I-19286134J-7008048D01*
G01*
X92900000Y-45837500D02*
G75*
G02*
X91866134Y-49988048I-20320000J2857500D01*
G01*
%TO.C,RSW2*%
D10*
X83108800Y-20872800D02*
X83108800Y-21172800D01*
X83108800Y-23672800D02*
X83108800Y-23372800D01*
X86408800Y-20872800D02*
X83108800Y-20872800D01*
X86408800Y-21172800D02*
X86408800Y-20872800D01*
X86408800Y-23372800D02*
X86408800Y-23672800D01*
X86408800Y-23672800D02*
X83108800Y-23672800D01*
%TD*%
M02*
