%TF.GenerationSoftware,KiCad,Pcbnew,10.0.3*%
%TF.CreationDate,2026-06-10T21:44:58+02:00*%
%TF.ProjectId,datum,64617475-6d2e-46b6-9963-61645f706362,rev?*%
%TF.SameCoordinates,Original*%
%TF.FileFunction,Profile,NP*%
%FSLAX46Y46*%
G04 Gerber Fmt 4.6, Leading zero omitted, Abs format (unit mm)*
G04 Created by KiCad (PCBNEW 10.0.3) date 2026-06-10 21:44:58*
%MOMM*%
%LPD*%
G01*
G04 APERTURE LIST*
%TA.AperFunction,Profile*%
%ADD10C,0.050000*%
%TD*%
G04 APERTURE END LIST*
D10*
X18690055Y-38400000D02*
X18730254Y-86245024D01*
X18690055Y-38400000D02*
G75*
G02*
X19490055Y-37599955I800045J0D01*
G01*
X20768000Y-88081119D02*
G75*
G02*
X18730252Y-86245024I-59750J1982509D01*
G01*
X20768000Y-88081119D02*
G75*
G02*
X89409134Y-95561946I-578030J-323956241D01*
G01*
X34600000Y-37600000D02*
X19490055Y-37600006D01*
X36000000Y-36200000D02*
G75*
G02*
X34600000Y-37600000I-1400000J0D01*
G01*
X36058316Y-26999987D02*
X36000000Y-36200000D01*
X36058316Y-26999987D02*
G75*
G02*
X37406919Y-25658334I1341684J-13D01*
G01*
X53400000Y-25600000D02*
X37400000Y-25658359D01*
X54191554Y-20618439D02*
X54200000Y-24800000D01*
X54191554Y-20618439D02*
G75*
G02*
X55804937Y-18836187I1791046J39D01*
G01*
X54200000Y-24800000D02*
G75*
G02*
X53400000Y-25600000I-800000J0D01*
G01*
X55804944Y-18836261D02*
G75*
G02*
X65090389Y-18206140I9285456J-68100139D01*
G01*
X69291777Y-18200679D02*
X65090389Y-18206139D01*
X69291777Y-18200679D02*
G75*
G02*
X106787290Y-26456889I-11947327J-143529581D01*
G01*
X89409134Y-95561946D02*
G75*
G02*
X110938000Y-104748000I-22787134J-83226054D01*
G01*
X106787290Y-26456889D02*
G75*
G02*
X107222002Y-27137419I-315290J-680511D01*
G01*
X107222001Y-42683999D02*
X107222045Y-27137419D01*
X109257002Y-44614917D02*
G75*
G02*
X107222001Y-42683999I-35002J2000917D01*
G01*
X109257002Y-44614917D02*
X126885000Y-44612000D01*
X113670000Y-104149265D02*
G75*
G02*
X110938000Y-104748000I-1662000J1051265D01*
G01*
X125888304Y-83312000D02*
X113670000Y-104149265D01*
X126885000Y-44612000D02*
G75*
G02*
X127635000Y-45362000I0J-750000D01*
G01*
X127635000Y-45362000D02*
X127635000Y-62484000D01*
X127635000Y-62484000D02*
X127647000Y-69850000D01*
X127635000Y-75987850D02*
G75*
G02*
X125888308Y-83312002I-16773900J129950D01*
G01*
X127647000Y-69850000D02*
X127635000Y-75987850D01*
M02*
